<svg xmlns="http://www.w3.org/2000/svg" width="800" height="450" viewBox="0 0 800 450">
  <rect width="800" height="450" fill="#10141a"/>
  <rect x="0" y="0" width="188" height="450" fill="#0d1116"/>
  <rect x="20" y="24" width="120" height="16" rx="3" fill="#33404d"/>
  <g fill="#232c36">
    <rect x="20" y="70" width="148" height="26" rx="4"/>
    <rect x="20" y="104" width="148" height="26" rx="4"/>
    <rect x="20" y="138" width="148" height="26" rx="4"/>
    <rect x="20" y="172" width="148" height="26" rx="4"/>
  </g>
  <rect x="20" y="70" width="148" height="26" rx="4" fill="rgba(143,208,124,0.16)" stroke="#8fd07c"/>
  <g fill="#e8e4d9">
    <rect x="216" y="28" width="180" height="18" rx="3" fill="#33404d"/>
  </g>
  <g>
    <rect x="216" y="70" width="172" height="96" rx="6" fill="#141a21" stroke="#232c36"/>
    <rect x="404" y="70" width="172" height="96" rx="6" fill="#141a21" stroke="#232c36"/>
    <rect x="592" y="70" width="172" height="96" rx="6" fill="#141a21" stroke="#232c36"/>
    <rect x="232" y="88" width="80" height="10" rx="2" fill="#33404d"/>
    <rect x="420" y="88" width="80" height="10" rx="2" fill="#33404d"/>
    <rect x="608" y="88" width="80" height="10" rx="2" fill="#33404d"/>
    <rect x="232" y="112" width="110" height="22" rx="3" fill="#8fd07c" opacity="0.85"/>
    <rect x="420" y="112" width="90" height="22" rx="3" fill="#f2b95c" opacity="0.8"/>
    <rect x="608" y="112" width="100" height="22" rx="3" fill="#33404d"/>
  </g>
  <rect x="216" y="190" width="360" height="236" rx="6" fill="#141a21" stroke="#232c36"/>
  <g fill="#8fd07c" opacity="0.75">
    <rect x="248" y="336" width="30" height="66" rx="2"/>
    <rect x="292" y="306" width="30" height="96" rx="2"/>
    <rect x="336" y="356" width="30" height="46" rx="2"/>
    <rect x="380" y="276" width="30" height="126" rx="2"/>
    <rect x="424" y="316" width="30" height="86" rx="2"/>
    <rect x="468" y="246" width="30" height="156" rx="2"/>
    <rect x="512" y="296" width="30" height="106" rx="2"/>
  </g>
  <rect x="232" y="210" width="120" height="12" rx="2" fill="#33404d"/>
  <rect x="592" y="190" width="172" height="236" rx="6" fill="#141a21" stroke="#232c36"/>
  <g fill="#232c36">
    <rect x="608" y="214" width="140" height="10" rx="2"/>
    <rect x="608" y="238" width="128" height="10" rx="2"/>
    <rect x="608" y="262" width="140" height="10" rx="2"/>
    <rect x="608" y="286" width="112" height="10" rx="2"/>
    <rect x="608" y="310" width="136" height="10" rx="2"/>
  </g>
  <rect x="330" y="30" width="290" height="30" rx="4" fill="none" stroke="#33404d" stroke-dasharray="5 4"/>
  <text x="475" y="50" text-anchor="middle" font-family="ui-monospace, Menlo, Consolas, monospace" font-size="14" fill="#8fd07c">redesign — illustrative wireframe</text>
</svg>
