<svg xmlns="http://www.w3.org/2000/svg" width="800" height="450" viewBox="0 0 800 450">
  <rect width="800" height="450" fill="#20242a"/>
  <rect x="0" y="0" width="800" height="52" fill="#3a4048"/>
  <rect x="16" y="16" width="150" height="20" rx="2" fill="#565e68"/>
  <rect x="640" y="16" width="60" height="20" rx="2" fill="#565e68"/>
  <rect x="708" y="16" width="60" height="20" rx="2" fill="#565e68"/>
  <rect x="0" y="52" width="800" height="34" fill="#2c3138"/>
  <g fill="#565e68">
    <rect x="16" y="61" width="70" height="16" rx="2"/>
    <rect x="94" y="61" width="70" height="16" rx="2"/>
    <rect x="172" y="61" width="70" height="16" rx="2"/>
    <rect x="250" y="61" width="70" height="16" rx="2"/>
    <rect x="328" y="61" width="70" height="16" rx="2"/>
    <rect x="406" y="61" width="70" height="16" rx="2"/>
  </g>
  <g stroke="#3a4048" stroke-width="1">
    <line x1="0" y1="118" x2="800" y2="118"/><line x1="0" y1="150" x2="800" y2="150"/>
    <line x1="0" y1="182" x2="800" y2="182"/><line x1="0" y1="214" x2="800" y2="214"/>
    <line x1="0" y1="246" x2="800" y2="246"/><line x1="0" y1="278" x2="800" y2="278"/>
    <line x1="0" y1="310" x2="800" y2="310"/><line x1="0" y1="342" x2="800" y2="342"/>
    <line x1="0" y1="374" x2="800" y2="374"/>
    <line x1="130" y1="86" x2="130" y2="450"/><line x1="260" y1="86" x2="260" y2="450"/>
    <line x1="390" y1="86" x2="390" y2="450"/><line x1="520" y1="86" x2="520" y2="450"/>
    <line x1="650" y1="86" x2="650" y2="450"/>
  </g>
  <g fill="#4a515b">
    <rect x="12" y="96" width="100" height="12" rx="2"/><rect x="142" y="96" width="90" height="12" rx="2"/>
    <rect x="272" y="96" width="90" height="12" rx="2"/><rect x="402" y="96" width="90" height="12" rx="2"/>
    <rect x="532" y="96" width="90" height="12" rx="2"/><rect x="662" y="96" width="90" height="12" rx="2"/>
    <rect x="12" y="128" width="90" height="10" rx="2"/><rect x="142" y="128" width="80" height="10" rx="2"/>
    <rect x="272" y="128" width="80" height="10" rx="2"/><rect x="402" y="128" width="80" height="10" rx="2"/>
    <rect x="12" y="160" width="95" height="10" rx="2"/><rect x="142" y="160" width="70" height="10" rx="2"/>
    <rect x="272" y="160" width="85" height="10" rx="2"/><rect x="402" y="160" width="75" height="10" rx="2"/>
    <rect x="12" y="192" width="85" height="10" rx="2"/><rect x="142" y="192" width="85" height="10" rx="2"/>
    <rect x="272" y="192" width="75" height="10" rx="2"/><rect x="402" y="192" width="85" height="10" rx="2"/>
    <rect x="12" y="224" width="100" height="10" rx="2"/><rect x="142" y="224" width="75" height="10" rx="2"/>
    <rect x="272" y="224" width="90" height="10" rx="2"/><rect x="402" y="224" width="70" height="10" rx="2"/>
    <rect x="12" y="256" width="80" height="10" rx="2"/><rect x="142" y="256" width="90" height="10" rx="2"/>
    <rect x="272" y="256" width="70" height="10" rx="2"/><rect x="402" y="256" width="90" height="10" rx="2"/>
    <rect x="532" y="128" width="80" height="10" rx="2"/><rect x="662" y="128" width="70" height="10" rx="2"/>
    <rect x="532" y="160" width="70" height="10" rx="2"/><rect x="662" y="160" width="80" height="10" rx="2"/>
    <rect x="532" y="192" width="85" height="10" rx="2"/><rect x="662" y="192" width="65" height="10" rx="2"/>
    <rect x="532" y="224" width="75" height="10" rx="2"/><rect x="662" y="224" width="85" height="10" rx="2"/>
    <rect x="532" y="256" width="90" height="10" rx="2"/><rect x="662" y="256" width="75" height="10" rx="2"/>
  </g>
  <rect x="188" y="330" width="424" height="44" rx="4" fill="#20242a" stroke="#565e68" stroke-dasharray="5 4"/>
  <text x="400" y="357" text-anchor="middle" font-family="ui-monospace, Menlo, Consolas, monospace" font-size="15" fill="#9aa2ac">legacy UI — illustrative wireframe</text>
</svg>
